<svg width="750" height="216" viewBox="0 0 750 216" fill="none" xmlns="http://www.w3.org/2000/svg">
<path d="M222.146 135.282V73.5204C222.147 73.1203 222.257 72.7278 222.464 72.3854C222.672 72.0431 222.968 71.7638 223.323 71.5776C224.148 71.1069 225.083 70.8594 226.033 70.8594C226.984 70.8594 227.918 71.1069 228.743 71.5776C229.092 71.7662 229.382 72.0475 229.58 72.3903C229.779 72.7332 229.878 73.1244 229.868 73.5204V100.004H254.824V73.5204C254.814 73.1244 254.914 72.7332 255.112 72.3903C255.311 72.0475 255.601 71.7662 255.949 71.5776C256.775 71.1069 257.709 70.8594 258.66 70.8594C259.61 70.8594 260.544 71.1069 261.37 71.5776C261.718 71.7662 262.008 72.0475 262.207 72.3903C262.405 72.7332 262.505 73.1244 262.495 73.5204V135.282C262.507 135.692 262.409 136.098 262.211 136.458C262.013 136.817 261.723 137.117 261.37 137.327C260.544 137.798 259.61 138.045 258.66 138.045C257.709 138.045 256.775 137.798 255.949 137.327C255.596 137.117 255.306 136.817 255.108 136.458C254.91 136.098 254.812 135.692 254.824 135.282V106.446H230.124V135.282C230.136 135.692 230.038 136.098 229.84 136.458C229.642 136.817 229.352 137.117 228.999 137.327C228.173 137.798 227.239 138.045 226.289 138.045C225.338 138.045 224.404 137.798 223.578 137.327C223.172 137.155 222.822 136.872 222.569 136.51C222.315 136.148 222.169 135.723 222.146 135.282Z" fill="white"/>
<path d="M271.598 126.692C271.371 124.629 271.778 122.546 272.765 120.719C273.751 118.893 275.271 117.41 277.121 116.467C282.17 114.315 287.646 113.353 293.127 113.655H297.525V111.712C297.599 108.818 296.719 105.979 295.019 103.634C294.129 102.494 292.975 101.587 291.657 100.99C290.338 100.394 288.895 100.125 287.451 100.209C285.109 100.156 282.785 100.628 280.649 101.589C279.606 102.118 278.53 102.579 277.427 102.97C277 102.97 276.581 102.856 276.213 102.64C275.844 102.425 275.54 102.115 275.331 101.743C274.844 100.958 274.579 100.057 274.564 99.135C274.564 97.7035 275.944 96.4765 278.757 95.4028C281.578 94.3114 284.579 93.7565 287.604 93.7667C290.062 93.5694 292.532 93.9263 294.834 94.8112C297.135 95.6961 299.208 97.0864 300.9 98.8794C303.807 102.471 305.314 106.993 305.145 111.61V135.128C305.158 135.52 305.071 135.909 304.892 136.258C304.713 136.607 304.448 136.905 304.122 137.122C303.321 137.655 302.373 137.923 301.411 137.889C300.514 137.919 299.632 137.649 298.906 137.122C298.594 136.914 298.338 136.633 298.16 136.303C297.981 135.974 297.886 135.605 297.883 135.231V131.652C296.228 133.763 294.128 135.485 291.733 136.696C289.338 137.906 286.707 138.575 284.024 138.656C280.755 138.781 277.559 137.667 275.075 135.537C273.896 134.398 272.975 133.019 272.375 131.493C271.775 129.967 271.51 128.33 271.598 126.692ZM279.32 125.823C279.269 126.764 279.415 127.705 279.75 128.585C280.085 129.466 280.6 130.267 281.263 130.936C282.647 132.235 284.479 132.949 286.377 132.93C289.16 132.824 291.811 131.716 293.843 129.811C294.886 129.083 295.753 128.132 296.381 127.026C297.01 125.921 297.383 124.689 297.474 123.42V118.563H294.252C292.513 118.563 290.979 118.563 289.701 118.563C288.345 118.679 286.996 118.867 285.661 119.126C284.467 119.312 283.32 119.729 282.286 120.353C281.38 120.849 280.634 121.594 280.138 122.5C279.547 123.504 279.263 124.66 279.32 125.823Z" fill="white"/>
<path d="M314.094 120.966V111.763C313.882 107.038 315.556 102.422 318.747 98.9306C320.522 97.1615 322.652 95.7905 324.998 94.9089C327.343 94.0274 329.85 93.6554 332.35 93.8179C335.672 93.7264 338.968 94.4274 341.964 95.863C344.573 97.1923 345.902 98.6749 345.902 100.209C345.855 101.126 345.514 102.004 344.93 102.714C344.679 103.082 344.345 103.385 343.953 103.599C343.562 103.812 343.126 103.929 342.68 103.941C341.568 103.553 340.504 103.038 339.51 102.407C337.487 101.311 335.213 100.764 332.913 100.822C331.407 100.719 329.895 100.914 328.464 101.396C327.034 101.879 325.713 102.639 324.577 103.634C323.581 104.719 322.813 105.993 322.321 107.381C321.829 108.769 321.623 110.242 321.714 111.712V120.813C321.714 128.073 325.498 131.703 333.015 131.703C335.348 131.767 337.657 131.221 339.714 130.118C340.75 129.436 341.867 128.887 343.038 128.482C343.509 128.483 343.974 128.59 344.398 128.793C344.823 128.997 345.197 129.292 345.493 129.658C346.071 130.367 346.395 131.249 346.414 132.163C346.414 133.697 345.084 135.18 342.374 136.56C339.295 138.085 335.886 138.823 332.453 138.707C330.023 138.962 327.568 138.679 325.26 137.88C322.952 137.08 320.848 135.784 319.096 134.081C317.345 132.379 315.989 130.313 315.125 128.029C314.26 125.745 313.908 123.299 314.094 120.864V120.966Z" fill="white"/>
<path d="M354.084 135.282V70.8619C354.083 70.4863 354.176 70.1164 354.355 69.786C354.534 69.4556 354.792 69.1751 355.107 68.9702C355.908 68.4377 356.856 68.1695 357.817 68.2033C358.796 68.1622 359.762 68.4305 360.579 68.9702C360.92 69.1547 361.204 69.428 361.402 69.761C361.6 70.0941 361.705 70.4745 361.704 70.8619V113.86L382.671 94.9427C383.129 94.5561 383.707 94.3395 384.307 94.3292C385.28 94.3479 386.211 94.7311 386.915 95.4029C387.287 95.7088 387.588 96.0906 387.8 96.5227C388.012 96.9548 388.129 97.4272 388.143 97.9081C388.151 98.2563 388.082 98.6021 387.941 98.9204C387.799 99.2387 387.589 99.5216 387.324 99.7486L374.54 111.048L389.881 133.186C390.156 133.596 390.314 134.073 390.342 134.566C390.313 135.075 390.175 135.571 389.937 136.021C389.699 136.471 389.366 136.864 388.961 137.174C388.194 137.926 387.172 138.364 386.097 138.401C385.675 138.406 385.259 138.3 384.891 138.094C384.523 137.887 384.216 137.587 384 137.225L369.375 115.802L361.704 122.705V135.384C361.671 135.77 361.547 136.142 361.343 136.471C361.138 136.8 360.859 137.076 360.528 137.276C359.785 137.81 358.885 138.08 357.971 138.043C357.019 138.069 356.084 137.781 355.312 137.225C354.961 137.029 354.665 136.749 354.451 136.409C354.236 136.07 354.11 135.682 354.084 135.282Z" fill="white"/>
<path d="M398.012 135.384V73.6227C397.973 73.2362 398.032 72.8459 398.184 72.4883C398.336 72.1307 398.576 71.8174 398.882 71.5776C399.598 71.0681 400.458 70.7995 401.337 70.8107H417.292C422.083 70.5677 426.837 71.7605 430.946 74.2362C432.77 75.6907 434.196 77.5837 435.09 79.7384C435.985 81.8932 436.318 84.2393 436.06 86.5578C436.169 89.8804 435.467 93.1796 434.014 96.1697C432.783 98.5978 430.738 100.516 428.235 101.589C431.123 102.726 433.576 104.749 435.241 107.366C437.01 110.471 437.828 114.027 437.594 117.592V119.228C437.814 121.872 437.472 124.532 436.59 127.035C435.709 129.537 434.308 131.825 432.48 133.748C428.813 136.813 424.107 138.351 419.337 138.043H401.49C400.59 138.089 399.703 137.818 398.984 137.276C398.685 137.059 398.441 136.775 398.272 136.446C398.103 136.117 398.014 135.754 398.012 135.384ZM405.734 98.4704H417.19C420.219 98.7329 423.23 97.7967 425.576 95.8629C426.554 94.753 427.295 93.4546 427.752 92.0478C428.21 90.6409 428.374 89.1554 428.235 87.6826C428.235 81.1384 424.451 77.8662 416.934 77.8662H405.734V98.4704ZM405.734 131.089H418.11C425.985 131.089 429.872 126.897 429.872 118.461V116.927C430.03 115.272 429.848 113.602 429.338 112.02C428.828 110.438 428 108.976 426.906 107.724C424.457 105.664 421.303 104.638 418.11 104.861H405.734V131.089Z" fill="white"/>
<path d="M445.316 120.966V111.303C445.301 108.999 445.777 106.717 446.712 104.611C447.646 102.504 449.018 100.62 450.736 99.0837C454.14 95.7588 458.691 93.8677 463.45 93.8011C468.208 93.7345 472.81 95.4975 476.306 98.7259C477.971 100.244 479.289 102.103 480.172 104.176C481.054 106.25 481.48 108.488 481.42 110.741C481.474 112.214 481.266 113.686 480.806 115.086C480.433 116.064 479.726 116.879 478.812 117.387C478.034 117.833 477.187 118.145 476.306 118.307C475.284 118.372 474.259 118.372 473.237 118.307H452.987V121.068C452.92 122.605 453.214 124.135 453.845 125.537C454.475 126.94 455.424 128.176 456.617 129.146C458.701 130.678 461.129 131.674 463.688 132.049C466.247 132.423 468.859 132.164 471.294 131.294C472.548 130.79 473.762 130.192 474.925 129.504C475.559 129.01 476.323 128.708 477.124 128.635C477.553 128.635 477.977 128.737 478.359 128.933C478.741 129.128 479.072 129.412 479.323 129.76C479.898 130.411 480.224 131.244 480.243 132.112C480.243 133.543 478.863 134.975 476.101 136.406C472.924 137.971 469.414 138.743 465.873 138.656C460.514 138.848 455.277 137.024 451.197 133.543C449.349 132.011 447.863 130.088 446.846 127.914C445.829 125.739 445.307 123.367 445.316 120.966ZM452.987 113.246H469.965C471.075 113.351 472.192 113.138 473.186 112.632C473.501 112.334 473.739 111.965 473.882 111.556C474.024 111.147 474.066 110.709 474.005 110.281C474.005 107.569 472.927 104.968 471.009 103.05C469.091 101.132 466.489 100.055 463.777 100.055C462.409 100.02 461.047 100.26 459.774 100.761C458.5 101.261 457.34 102.012 456.362 102.969C455.358 103.858 454.559 104.953 454.021 106.18C453.482 107.407 453.217 108.736 453.242 110.076L452.987 113.246Z" fill="white"/>
<path d="M486.892 126.693C486.665 124.629 487.072 122.546 488.059 120.719C489.045 118.893 490.565 117.41 492.415 116.467C497.448 114.323 502.906 113.361 508.37 113.655H512.819V111.712C512.874 108.813 511.976 105.974 510.262 103.634C509.377 102.488 508.225 101.576 506.905 100.978C505.585 100.381 504.139 100.117 502.693 100.209C500.392 100.232 498.124 100.755 496.045 101.743C495.012 102.292 493.934 102.754 492.824 103.123C492.403 103.125 491.99 103.012 491.629 102.795C491.269 102.579 490.974 102.268 490.778 101.896C490.242 101.133 489.956 100.222 489.96 99.2886C489.96 97.8571 491.341 96.63 494.153 95.5564C496.992 94.4645 500.01 93.9098 503.051 93.9203C505.501 93.7233 507.964 94.0807 510.257 94.9658C512.55 95.8509 514.614 97.2411 516.296 99.033C519.217 102.62 520.743 107.141 520.592 111.764V135.282C520.595 135.678 520.499 136.068 520.311 136.417C520.123 136.765 519.85 137.061 519.518 137.276C518.636 137.882 517.566 138.154 516.501 138.043C515.619 138.073 514.754 137.803 514.046 137.276C513.728 137.075 513.467 136.795 513.288 136.464C513.109 136.132 513.018 135.761 513.023 135.384V131.805C511.353 133.913 509.243 135.632 506.841 136.841C504.439 138.051 501.802 138.723 499.114 138.81C495.845 138.929 492.651 137.816 490.164 135.691C488.999 134.518 488.103 133.106 487.537 131.552C486.972 129.998 486.752 128.34 486.892 126.693ZM494.613 125.824C494.556 126.76 494.694 127.699 495.02 128.579C495.346 129.46 495.852 130.262 496.506 130.936C497.926 132.152 499.751 132.79 501.619 132.726C504.417 132.614 507.082 131.508 509.137 129.607C510.17 128.869 511.03 127.915 511.657 126.811C512.284 125.708 512.663 124.481 512.768 123.216V118.359H509.546C507.739 118.359 506.205 118.359 504.943 118.359C503.605 118.478 502.274 118.666 500.955 118.921C499.748 119.122 498.588 119.538 497.528 120.148C496.645 120.675 495.907 121.413 495.381 122.296C494.768 123.365 494.5 124.597 494.613 125.824Z" fill="white"/>
<path d="M530.922 135.282V97.141C530.921 96.7654 531.014 96.3955 531.193 96.0651C531.371 95.7347 531.63 95.4542 531.945 95.2493C532.746 94.7168 533.694 94.4486 534.655 94.4824C535.543 94.4626 536.411 94.7518 537.11 95.3005C537.431 95.5028 537.697 95.7814 537.884 96.1114C538.072 96.4415 538.174 96.8128 538.184 97.1922V101.027C539.224 98.9033 540.858 97.1272 542.888 95.914C545.173 94.4961 547.819 93.7682 550.508 93.8178C552.656 93.8065 554.782 94.2572 556.741 95.1393C558.699 96.0215 560.446 97.3144 561.861 98.9305C565.015 102.312 566.738 106.782 566.668 111.405V135.077C566.669 135.491 566.561 135.899 566.355 136.258C566.148 136.617 565.85 136.915 565.492 137.122C564.672 137.609 563.734 137.857 562.781 137.838C561.863 137.838 560.963 137.591 560.173 137.122C559.82 136.913 559.53 136.613 559.332 136.253C559.134 135.893 559.036 135.487 559.048 135.077V111.661C559.019 108.877 557.899 106.215 555.929 104.248C555.039 103.231 553.948 102.411 552.725 101.837C551.502 101.264 550.173 100.951 548.822 100.917C547.472 100.884 546.129 101.13 544.879 101.642C543.628 102.154 542.498 102.919 541.559 103.89C540.556 104.913 539.771 106.13 539.253 107.466C538.734 108.802 538.492 110.229 538.542 111.661V135.282C538.513 135.669 538.391 136.043 538.186 136.372C537.981 136.701 537.7 136.976 537.365 137.173C536.604 137.666 535.716 137.929 534.808 137.929C533.901 137.929 533.013 137.666 532.251 137.173C531.889 136.995 531.577 136.729 531.344 136.398C531.112 136.067 530.967 135.683 530.922 135.282Z" fill="white"/>
<path d="M577.253 156.346V97.1414C577.242 96.764 577.331 96.3904 577.511 96.0583C577.69 95.7262 577.954 95.4473 578.276 95.2497C579.041 94.7219 579.955 94.4531 580.884 94.4828C581.815 94.4378 582.734 94.708 583.492 95.2497C583.808 95.4659 584.066 95.7559 584.244 96.0945C584.423 96.433 584.516 96.8099 584.515 97.1925V101.027C585.752 98.865 587.538 97.0687 589.694 95.8205C591.85 94.5723 594.297 93.9168 596.788 93.9204C599.002 93.8737 601.199 94.3064 603.229 95.189C605.26 96.0715 607.075 97.3829 608.55 99.0331C611.704 102.414 613.427 106.885 613.357 111.508V120.864C613.3 125.506 611.47 129.95 608.243 133.288C606.861 134.951 605.135 136.296 603.184 137.232C601.234 138.167 599.105 138.67 596.942 138.708C594.322 138.721 591.752 137.994 589.527 136.611C587.377 135.419 585.606 133.648 584.413 131.499V156.295C584.372 156.679 584.245 157.048 584.042 157.376C583.838 157.704 583.563 157.981 583.237 158.187C582.455 158.769 581.501 159.075 580.526 159.056C579.576 159.068 578.646 158.782 577.867 158.238C577.638 157.983 577.466 157.683 577.36 157.357C577.254 157.031 577.218 156.687 577.253 156.346ZM584.873 123.421C585.247 125.464 586.379 127.29 588.044 128.533C588.986 129.521 590.122 130.303 591.382 130.829C592.641 131.356 593.996 131.615 595.361 131.591C596.726 131.567 598.072 131.26 599.312 130.69C600.552 130.119 601.661 129.298 602.567 128.278C604.575 126.268 605.713 123.551 605.738 120.711V111.61C605.701 108.818 604.561 106.153 602.567 104.197C601.608 103.163 600.444 102.338 599.151 101.775C597.857 101.212 596.461 100.922 595.05 100.925C593.726 100.915 592.414 101.172 591.193 101.682C589.971 102.191 588.865 102.942 587.941 103.89C586.918 104.891 586.116 106.095 585.588 107.425C585.059 108.755 584.816 110.18 584.873 111.61V123.421Z" fill="white"/>
<path d="M620.875 120.967V111.61C620.832 109.307 621.263 107.02 622.143 104.892C623.023 102.763 624.332 100.838 625.989 99.2376C627.664 97.5806 629.653 96.2749 631.839 95.3969C634.026 94.519 636.366 94.0865 638.722 94.1249C641.085 94.0911 643.432 94.5254 645.626 95.4029C647.82 96.2805 649.819 97.5838 651.507 99.2376C653.233 100.811 654.608 102.731 655.542 104.872C656.476 107.013 656.948 109.326 656.928 111.661V121.018C656.923 123.354 656.434 125.664 655.492 127.802C654.551 129.94 653.176 131.86 651.456 133.442C648.242 136.762 643.854 138.69 639.234 138.81C636.862 138.819 634.513 138.343 632.332 137.411C630.151 136.479 628.184 135.111 626.551 133.39C624.803 131.82 623.397 129.906 622.421 127.769C621.444 125.631 620.918 123.316 620.875 120.967ZM628.494 120.967C628.5 123.826 629.64 126.566 631.665 128.584C632.579 129.621 633.705 130.449 634.966 131.014C636.228 131.578 637.596 131.866 638.978 131.857C640.387 131.865 641.782 131.572 643.069 130.999C644.357 130.426 645.507 129.586 646.444 128.533C648.438 126.519 649.558 123.801 649.564 120.967V111.61C649.546 108.824 648.424 106.158 646.444 104.197C645.491 103.169 644.336 102.348 643.051 101.785C641.767 101.222 640.38 100.929 638.978 100.925C637.589 100.922 636.216 101.211 634.947 101.775C633.678 102.339 632.542 103.164 631.614 104.197C629.653 106.171 628.534 108.828 628.494 111.61V120.967Z" fill="white"/>
<path d="M666.184 124.187V76.6903C666.209 76.2962 666.335 75.9152 666.55 75.5839C666.765 75.2526 667.061 74.9821 667.411 74.7987C668.167 74.2932 669.058 74.0261 669.968 74.0317C670.911 74.0182 671.836 74.2851 672.627 74.7987C672.977 74.9821 673.273 75.2526 673.488 75.5839C673.703 75.9152 673.829 76.2962 673.854 76.6903V94.3291H685.258C685.588 94.3269 685.912 94.4106 686.199 94.572C686.486 94.7334 686.726 94.9669 686.895 95.2494C687.348 95.8718 687.582 96.6271 687.56 97.3967C687.583 98.1351 687.348 98.8584 686.895 99.4418C686.713 99.7083 686.469 99.9266 686.184 100.078C685.899 100.229 685.581 100.309 685.258 100.311H673.701V123.829C673.594 124.808 673.688 125.798 673.978 126.739C674.269 127.68 674.749 128.552 675.389 129.3C677.096 130.559 679.209 131.142 681.321 130.936H684.133C684.589 130.901 685.047 130.971 685.473 131.139C685.898 131.307 686.279 131.57 686.588 131.907C687.207 132.615 687.547 133.524 687.547 134.464C687.547 135.404 687.207 136.312 686.588 137.02C686.287 137.357 685.916 137.623 685.5 137.8C685.085 137.977 684.636 138.06 684.184 138.043H681.372C671.297 138.043 666.184 133.441 666.184 124.187Z" fill="white"/>
<path d="M83.7651 71.8335C82.5642 71.8299 81.3973 71.435 80.4411 70.7088C79.262 69.8323 78.4728 68.5294 78.2421 67.0787C78.1189 66.3598 78.151 65.6229 78.3363 64.9175C78.5215 64.212 78.8556 63.5543 79.316 62.9886C79.7285 62.3836 80.2661 61.8742 80.8925 61.4949C81.5189 61.1156 82.2195 60.8753 82.9469 60.7901C83.6623 60.66 84.3973 60.6838 85.1027 60.8602C85.8082 61.0365 86.468 61.3612 87.038 61.8127C88.2213 62.6898 89.0093 63.9995 89.2297 65.4557C89.4501 66.9119 89.085 68.3961 88.2141 69.584C87.3266 70.7507 86.0287 71.5366 84.5833 71.7824L83.7651 71.8335ZM83.7651 64.2156H83.4582C82.9096 64.2997 82.4147 64.5929 82.0775 65.0337C81.8197 65.4634 81.7287 65.9728 81.8218 66.4652C81.852 66.7403 81.9406 67.0058 82.0817 67.2438C82.2228 67.4819 82.4132 67.6871 82.64 67.8456C82.858 68.0063 83.1065 68.1209 83.3703 68.1825C83.634 68.244 83.9076 68.2512 84.1742 68.2035C84.4413 68.1696 84.698 68.0791 84.9273 67.938C85.1566 67.7969 85.3531 67.6086 85.5038 67.3855C85.6717 67.1733 85.7947 66.9292 85.8653 66.668C85.9359 66.4068 85.9525 66.134 85.9143 65.8661C85.876 65.5983 85.7836 65.341 85.6427 65.11C85.5018 64.879 85.3153 64.6791 85.0947 64.5224C84.7051 64.2584 84.231 64.149 83.7651 64.2156Z" fill="white"/>
<path d="M100.999 61.3524C99.8208 61.3561 98.6729 60.9795 97.726 60.2787C96.5121 59.4041 95.6955 58.0832 95.4557 56.6066C95.216 55.1301 95.5727 53.6188 96.4475 52.4052C97.3223 51.1916 98.6435 50.3751 100.12 50.1354C101.597 49.8957 103.109 50.2524 104.323 51.127C105.493 52.0336 106.278 53.3481 106.522 54.8081C106.629 55.5271 106.589 56.2603 106.405 56.9634C106.22 57.6664 105.895 58.3247 105.448 58.8983C105.035 59.5033 104.498 60.0126 103.871 60.3919C103.245 60.7712 102.544 61.0116 101.817 61.0967L100.999 61.3524ZM100.999 53.7345H100.692C100.152 53.8386 99.6745 54.1508 99.3624 54.6036C99.1945 54.8158 99.0715 55.0599 99.0009 55.3211C98.9304 55.5823 98.9137 55.8552 98.952 56.123C98.9903 56.3909 99.0827 56.6481 99.2236 56.8791C99.3645 57.1101 99.5509 57.3101 99.7716 57.4667C100.212 57.794 100.761 57.9403 101.306 57.8757C101.854 57.7917 102.349 57.4985 102.686 57.0577C103.001 56.6124 103.129 56.0623 103.044 55.5239C103.018 55.2479 102.93 54.9812 102.789 54.7427C102.648 54.5041 102.455 54.2996 102.226 54.1435C101.877 53.8629 101.447 53.7016 100.999 53.6833V53.7345Z" fill="white"/>
<path d="M83.5095 155.119C82.186 155.089 80.9146 154.597 79.9154 153.729C78.9162 152.861 78.252 151.671 78.0377 150.364C77.8324 148.904 78.1988 147.42 79.0604 146.223C79.4893 145.639 80.0321 145.147 80.6561 144.778C81.2801 144.409 81.9724 144.17 82.6913 144.076C83.415 143.96 84.1546 143.991 84.8662 144.167C85.5778 144.342 86.2468 144.659 86.8335 145.098C87.4211 145.532 87.9168 146.078 88.2919 146.705C88.667 147.332 88.914 148.026 89.0186 148.749C89.1232 149.472 89.0834 150.208 88.9015 150.916C88.7195 151.623 88.399 152.287 87.9586 152.87C87.4398 153.561 86.7685 154.124 85.9969 154.514C85.2253 154.904 84.3742 155.111 83.5095 155.119ZM83.5095 147.45H83.2027C82.9275 147.48 82.662 147.569 82.4239 147.71C82.1858 147.851 81.9805 148.041 81.8219 148.268C81.6467 148.479 81.5193 148.725 81.4487 148.99C81.378 149.255 81.3658 149.532 81.4128 149.802C81.4969 150.351 81.7901 150.845 82.231 151.182C82.6765 151.497 83.2267 151.625 83.7652 151.54C84.0403 151.51 84.3059 151.422 84.544 151.281C84.7821 151.139 84.9873 150.949 85.1459 150.722C85.4689 150.274 85.6017 149.716 85.5155 149.171C85.4293 148.625 85.1311 148.135 84.6857 147.808C84.3382 147.574 83.9285 147.449 83.5095 147.45Z" fill="white"/>
<path d="M113.63 89.0118C112.327 89.0015 111.065 88.551 110.05 87.7336C108.93 86.7812 108.231 85.4245 108.106 83.9593C107.982 82.494 108.442 81.039 109.386 79.9112C109.855 79.3511 110.431 78.8907 111.081 78.557C111.731 78.2234 112.441 78.0232 113.17 77.9683C113.896 77.8804 114.632 77.9489 115.329 78.1694C116.025 78.3899 116.667 78.7572 117.21 79.2465C117.782 79.7089 118.253 80.2828 118.596 80.9332C118.939 81.5836 119.146 82.297 119.204 83.0299C119.307 84.4983 118.829 85.9484 117.875 87.0689C117.411 87.6231 116.843 88.0801 116.202 88.4135C115.562 88.747 114.861 88.9503 114.142 89.0118H113.63ZM113.63 81.3939C113.351 81.4141 113.079 81.4928 112.833 81.625C112.586 81.7571 112.37 81.9396 112.198 82.1608C112.024 82.363 111.893 82.599 111.814 82.8541C111.734 83.1092 111.709 83.3779 111.738 83.6434C111.783 84.195 112.04 84.7079 112.454 85.075C112.884 85.4253 113.436 85.5908 113.988 85.5351C114.525 85.4876 115.021 85.2304 115.369 84.8194C115.551 84.6103 115.691 84.367 115.778 84.1037C115.866 83.8404 115.901 83.5623 115.88 83.2856C115.822 82.7521 115.567 82.2597 115.164 81.9051C114.965 81.7241 114.73 81.5855 114.475 81.4976C114.22 81.4097 113.95 81.3744 113.681 81.3939H113.63Z" fill="white"/>
<path d="M156.177 81.803C154.43 79.4391 152.442 77.263 150.245 75.3099C145.605 71.0377 140.102 67.8099 134.107 65.8441C128.113 63.8782 121.767 63.22 115.497 63.9138C109.227 64.6075 103.178 66.6372 97.7588 69.8659C92.3397 73.0947 87.6758 77.4474 84.0817 82.6307C80.4876 87.8141 78.0467 93.7075 76.9237 99.9138C75.8007 106.12 76.0215 112.495 77.5714 118.609C79.1213 124.722 81.9642 130.433 85.9084 135.355C89.8527 140.277 94.8066 144.297 100.436 147.143L97.1634 158.493L102.277 159.925L106.113 146.479C106.284 145.866 106.234 145.213 105.973 144.634C105.711 144.054 105.254 143.585 104.681 143.309C99.4968 141.042 94.8703 137.671 91.1245 133.432C87.3788 129.192 84.604 124.186 82.9942 118.763C81.3844 113.34 80.9782 107.631 81.8042 102.035C82.6302 96.4391 84.6684 91.0908 87.7763 86.3639C90.8842 81.637 94.987 77.6455 99.798 74.6683C104.609 71.6911 110.012 69.8 115.63 69.1271C121.248 68.4542 126.945 69.0157 132.323 70.7724C137.701 72.5292 142.631 75.4387 146.768 79.2978L147.74 80.2181C149.031 80.068 150.335 80.068 151.626 80.2181C153.217 80.5034 154.753 81.0383 156.177 81.803Z" fill="white"/>
<path d="M156.177 81.803C159.011 85.4571 161.191 89.5739 162.621 93.9712C164.625 98.9093 165.261 104.296 164.462 109.565C162.532 123.466 155.178 136.038 144.006 144.536C138.893 147.91 128.665 151.642 122.937 147.297C120.767 145.719 119.049 143.599 117.955 141.15C116.86 138.701 116.427 136.008 116.698 133.339C116.952 130.589 117.785 127.923 119.143 125.518C120.5 123.112 122.351 121.021 124.574 119.381C135.108 111.099 135.057 104.554 135.057 101.385C135.211 95.9618 137.402 90.7958 141.194 86.9157C143.302 85.1255 145.998 84.1785 148.762 84.2571H151.012H151.575C150.41 82.728 149.128 81.2921 147.74 79.9624C144.361 80.0823 141.128 81.3646 138.586 83.5924C133.831 88.3582 131.148 94.8066 131.12 101.538C131.12 103.941 131.12 108.9 122.17 115.956C119.487 117.955 117.259 120.503 115.637 123.43C114.015 126.356 113.034 129.595 112.761 132.93C112.429 136.286 112.981 139.67 114.363 142.747C115.744 145.823 117.907 148.484 120.636 150.466C123.329 152.349 126.556 153.316 129.841 153.227C135.754 153.001 141.488 151.143 146.41 147.859C158.436 138.604 166.35 125.001 168.451 109.974C170.292 93.9712 163.183 85.1262 156.177 81.803Z" fill="white"/>
<path d="M162.621 93.9711C161.191 89.5739 159.011 85.4571 156.178 81.8029C154.744 81.0914 153.209 80.6083 151.626 80.3714C150.335 80.2213 149.031 80.2213 147.74 80.3714C149.128 81.7011 150.41 83.137 151.575 84.666C154.02 85.2353 156.296 86.3753 158.216 87.9926C160.136 89.6099 161.645 91.6586 162.621 93.9711Z" fill="white"/>
<path d="M66.4803 124.238C66.0349 124.247 65.5947 124.141 65.2018 123.932C64.8787 123.754 64.5945 123.512 64.3661 123.223C64.1378 122.933 63.9698 122.6 63.8722 122.244C62.6862 117.513 62.0851 112.654 62.0823 107.776C62.0273 100.2 63.4669 92.6886 66.3188 85.6703C69.1706 78.6519 73.3788 72.2647 78.7024 66.874L82.4867 70.5552C72.6704 80.375 67.1528 93.6878 67.1451 107.571C67.1664 111.004 67.5088 114.427 68.1678 117.796L78.7024 114.371L80.3388 119.484L67.0428 123.829L66.4803 124.238Z" fill="white"/>
<path d="M120.329 165.805C107.639 165.835 95.2912 161.685 85.197 153.994L88.4188 149.751C97.564 156.787 108.79 160.582 120.329 160.539C127.864 160.535 135.31 158.918 142.167 155.797C149.024 152.677 155.134 148.124 160.084 142.446C165.035 136.768 168.712 130.096 170.869 122.878C173.026 115.661 173.611 108.066 172.587 100.603C171.563 93.1403 168.952 85.9834 164.931 79.6136C160.91 73.2437 155.571 67.8085 149.273 63.6735C142.975 59.5385 135.865 56.7995 128.421 55.6408C120.976 54.482 113.37 54.9303 106.113 56.9555L104.681 51.8428C109.773 50.4105 115.039 49.6879 120.329 49.6955C128.1 49.4649 135.838 50.7959 143.084 53.6097C150.331 56.4235 156.939 60.6628 162.517 66.0765C168.095 71.4901 172.53 77.968 175.558 85.1264C178.586 92.2847 180.146 99.9779 180.146 107.75C180.146 115.522 178.586 123.216 175.558 130.374C172.53 137.532 168.095 144.01 162.517 149.424C156.939 154.837 150.331 159.077 143.084 161.89C135.838 164.704 128.1 166.035 120.329 165.805Z" fill="white"/>
<path d="M87.4471 132.93L84.3276 128.635L96.0384 120.097C94.1039 116.297 93.1046 112.09 93.1235 107.827C93.1066 102.403 94.7214 97.0986 97.7582 92.6038C100.795 88.1089 105.113 84.6308 110.153 82.6211L112.147 87.7338C108.057 89.3549 104.553 92.1764 102.097 95.8268C99.6419 99.4773 98.3497 103.786 98.3908 108.185C98.3966 112.287 99.5478 116.307 101.715 119.79C102.077 120.352 102.21 121.03 102.086 121.687C101.963 122.343 101.592 122.927 101.05 123.318L87.4471 132.93Z" fill="white"/>
<path d="M151.166 82.5698C158.018 83.5412 168.4 91.2103 166.507 110.025C164.497 124.477 156.873 137.556 145.285 146.427C140.171 149.751 129.023 154.403 121.863 149.137C119.422 147.373 117.486 145.001 116.248 142.256C115.01 139.511 114.513 136.489 114.806 133.492C115.091 130.473 116.007 127.547 117.496 124.904C118.985 122.262 121.013 119.962 123.449 118.154C133.676 110.025 133.114 104.094 133.165 101.691C132.96 96.6297 136.285 80.4736 151.166 82.5698Z" fill="white"/>
</svg>
