<svg width="130" height="130" viewBox="0 0 130 130" fill="none" xmlns="http://www.w3.org/2000/svg">
<circle cx="65" cy="65" r="65" fill="#1B365D"/>
<path d="M38.4317 38.8551L37.9266 39.3905C38.3249 39.5309 38.744 39.6033 39.1663 39.6047C39.7743 39.6106 40.3755 39.4756 40.9225 39.2101C41.4695 38.9447 41.9475 38.5561 42.3189 38.0748V38.0748C42.7151 37.5442 42.9702 36.9219 43.0605 36.2659C43.1507 35.61 43.0731 34.9419 42.835 34.3241C42.5968 33.7062 42.2058 33.1589 41.6986 32.7331C41.1913 32.3073 40.5844 32.017 39.9344 31.8894C39.2845 31.7617 38.6128 31.8009 37.9821 32.0032C37.3514 32.2055 36.7823 32.5643 36.328 33.0461C35.8737 33.528 35.549 34.1171 35.3843 34.7584C35.2196 35.3997 35.2202 36.0723 35.3861 36.7133L35.7687 36.3002L38.4317 38.8551ZM37.9878 34.8162C38.1272 34.6351 38.3054 34.4875 38.5093 34.3843C38.7133 34.281 38.9377 34.2248 39.1663 34.2196C39.4812 34.2173 39.788 34.3196 40.0386 34.5103C40.2935 34.6832 40.4903 34.9289 40.6033 35.2154C40.7162 35.5019 40.74 35.8158 40.6716 36.1161C40.6032 36.4163 40.4457 36.6889 40.2198 36.8983C39.9939 37.1076 39.71 37.2439 39.4053 37.2894C39.1006 37.3348 38.7893 37.2873 38.5121 37.153C38.2349 37.0188 38.0046 36.804 37.8515 36.5368C37.6984 36.2696 37.6294 35.9625 37.6538 35.6555C37.6781 35.3485 37.7945 35.056 37.9878 34.8162Z" fill="white"/>
<path d="M53.9348 25.4992H54.0572C53.9348 25.3921 53.8123 25.2545 53.6746 25.1474C52.8381 24.5337 51.793 24.2752 50.7668 24.4283C50.2584 24.5009 49.7694 24.6735 49.3281 24.9361C48.8868 25.1987 48.5019 25.5461 48.1957 25.9582C47.7638 26.5336 47.4995 27.2172 47.432 27.9334C47.3645 28.6496 47.4964 29.3705 47.8132 30.0164C48.1299 30.6624 48.6192 31.2082 49.2269 31.5935C49.8345 31.9789 50.537 32.1888 51.2565 32.2H51.8534C52.3596 32.1271 52.8463 31.9543 53.285 31.6917C53.7238 31.429 54.1059 31.0818 54.4092 30.6701V30.6701C54.7429 30.2155 54.9727 29.6933 55.0826 29.1403H54.853L53.9348 25.4992ZM52.5268 29.1403C52.291 29.4495 51.9462 29.6574 51.5626 29.7216C51.2838 29.7375 51.0059 29.6768 50.7591 29.5461C50.5123 29.4153 50.306 29.2196 50.1626 28.9801C50.0191 28.7405 49.9439 28.4663 49.9452 28.1871C49.9465 27.908 50.0242 27.6344 50.1699 27.3962C50.4057 27.087 50.7505 26.8792 51.1341 26.8149H51.3484C51.6621 26.8201 51.9666 26.9216 52.2207 27.1056C52.5157 27.346 52.7104 27.6876 52.767 28.0638C52.8236 28.44 52.738 28.8238 52.5268 29.1403V29.1403Z" fill="white"/>
<path d="M36.6715 97.6009C37.2512 98.0299 37.9386 98.2899 38.6572 98.352C39.3758 98.4141 40.0976 98.2759 40.7424 97.9528C40.5588 97.8304 40.3598 97.708 40.1915 97.5703L42.4412 94.6024L42.8697 94.9084C42.9234 94.5637 42.9234 94.2128 42.8697 93.8681C42.795 93.3591 42.6202 92.8699 42.3556 92.4287C42.0909 91.9874 41.7415 91.6029 41.3276 91.2972C40.9137 90.9915 40.4433 90.7706 39.9437 90.6473C39.444 90.5241 38.9249 90.5008 38.4162 90.5789C37.3914 90.7375 36.4707 91.2942 35.8545 92.128C35.2383 92.9617 34.9764 94.005 35.1258 95.0308C35.2019 95.5397 35.3776 96.0286 35.6428 96.4696C35.908 96.9106 36.2576 97.295 36.6715 97.6009ZM37.8193 93.5774C38.0551 93.2682 38.3999 93.0603 38.7835 92.9961H38.9671C39.2809 93.0013 39.5854 93.1027 39.8395 93.2867C40.1385 93.5277 40.336 93.8723 40.3927 94.252C40.4494 94.6318 40.3612 95.019 40.1456 95.3367C39.9045 95.6357 39.5598 95.8331 39.1799 95.8898C38.8 95.9465 38.4127 95.8583 38.0948 95.6427C37.7855 95.407 37.5775 95.0624 37.5132 94.6789C37.469 94.286 37.5787 93.8912 37.8193 93.5774Z" fill="white"/>
<path d="M59.1994 50.7419L58.2505 51.1702C58.8577 51.5441 59.5576 51.7403 60.2707 51.7363C61.0785 51.7411 61.8681 51.4961 62.5313 51.035C63.1945 50.5739 63.6988 49.9191 63.9753 49.1603C64.2518 48.4015 64.2869 47.5759 64.0757 46.7964C63.8646 46.0169 63.4176 45.3217 62.7959 44.8061C61.9995 44.1364 60.9715 43.8067 59.934 43.8881C58.9437 43.9699 58.0223 44.4277 57.3591 45.1675C56.6959 45.9072 56.3413 46.8728 56.3681 47.8658C56.8426 47.6363 57.317 47.4221 57.8067 47.2232L59.1994 50.7419ZM59.1994 46.8867C59.32 46.7357 59.4708 46.6115 59.642 46.5219C59.8133 46.4324 60.0013 46.3795 60.1942 46.3665H60.3166C60.6566 46.3719 60.985 46.4903 61.2502 46.7031C61.4964 46.8896 61.6803 47.1462 61.7779 47.4391C61.8755 47.7321 61.882 48.0477 61.7968 48.3445C61.7116 48.6413 61.5385 48.9054 61.3003 49.102C61.0621 49.2986 60.77 49.4185 60.4623 49.4461C60.1546 49.4736 59.8458 49.4075 59.5765 49.2563C59.3072 49.1051 59.0899 48.876 58.9533 48.5991C58.8166 48.3222 58.767 48.0104 58.8109 47.7047C58.8549 47.3991 58.9903 47.1139 59.1994 46.8867V46.8867Z" fill="white"/>
<path d="M54.9602 92.2314C55.0869 91.7984 55.0511 91.334 54.8595 90.9255C54.6679 90.5171 54.3336 90.1926 53.9195 90.0131C49.7035 88.1579 46.0201 85.2755 43.2065 81.6296L41.6761 82.7311L39.4723 79.6714L41.1098 78.4781C37.8301 72.7819 36.7067 66.0975 37.9442 59.6427C39.1816 53.1878 42.6977 47.3922 47.8518 43.3117C53.0058 39.2312 59.4548 37.1373 66.0238 37.4116C72.5929 37.6859 78.8447 40.3101 83.6404 44.8061L84.3291 45.4486C85.239 45.4071 86.1507 45.448 87.0532 45.571C88.1774 45.7512 89.2699 46.0912 90.2977 46.5807C89.0594 44.9125 87.6544 43.3747 86.1044 41.9911C81.6496 37.8859 76.0941 35.1681 70.1179 34.1703C64.1418 33.1724 58.0042 33.9379 52.4566 36.373C46.9089 38.8082 42.1918 42.8072 38.8827 47.8808C35.5736 52.9543 33.8159 58.8822 33.825 64.9389C33.8437 66.7774 34.028 68.6104 34.3759 70.4158L35.9064 69.9109L37.0695 73.4602L35.2177 74.0568C36.4408 78.0734 38.4636 81.8013 41.1646 85.0166C43.8657 88.2319 47.1891 90.8681 50.9352 92.7669L49.2211 98.6874C50.3689 99.2228 51.5167 99.6971 52.6952 100.11L54.9602 92.2314Z" fill="white"/>
<path d="M97.5366 66.4077C96.1252 76.6099 90.7472 85.8447 82.5691 92.1092C79.1103 94.4345 71.1062 97.7084 66.0558 94.0062C64.3478 92.7665 62.9894 91.1064 62.1126 89.1871C61.2357 87.2679 60.8701 85.1546 61.0513 83.0525C61.2433 80.9032 61.888 78.8188 62.9431 76.9362C63.9981 75.0536 65.4396 73.4155 67.173 72.1293C74.4884 66.3771 74.014 62.2159 74.0293 60.5178C74.0293 57.1827 76.2331 46.5196 85.737 47.0398C85.1861 46.4125 84.7117 45.9383 84.3444 45.5864C81.9585 45.6902 79.6775 46.5957 77.8706 48.1566C73.5701 51.767 72.6366 58.2383 72.6366 60.426V60.7625C72.6366 62.4454 72.6366 65.9487 66.3159 70.936C64.4326 72.346 62.8687 74.138 61.7266 76.1944C60.5846 78.2509 59.8903 80.5254 59.6892 82.8689C59.4709 85.2172 59.8701 87.5818 60.8472 89.7284C61.8243 91.8751 63.3454 93.7294 65.2599 95.1077C67.1534 96.4312 69.4242 97.1074 71.7336 97.0353C75.8769 96.8783 79.8964 95.5813 83.3496 93.2872C91.8566 86.7705 97.4581 77.1707 98.9446 66.5607C100.23 55.2092 95.241 48.9827 90.2977 46.6726C91.0102 47.6141 91.6693 48.5947 92.272 49.6099C95.7001 52.4555 98.5161 57.7028 97.5366 66.4077Z" fill="white"/>
<path d="M84.3291 45.5098C84.6964 45.8617 85.1708 46.336 85.7218 46.9632C86.0891 46.9632 86.4564 46.9632 86.8543 47.0397C88.856 47.3832 90.7278 48.2606 92.272 49.5792C91.6694 48.564 91.0103 47.5834 90.2978 46.6419C89.27 46.1524 88.1774 45.8124 87.0533 45.6322C86.1508 45.5093 85.239 45.4683 84.3291 45.5098V45.5098Z" fill="white"/>
<path d="M74.0142 60.4412C74.0142 62.1393 74.4733 66.3005 67.1579 72.0528C65.4246 73.3389 63.9831 74.9771 62.928 76.8597C61.8729 78.7422 61.2282 80.8266 61.0362 82.9759C60.8414 85.0905 61.2004 87.2193 62.0778 89.1532C62.9552 91.0871 64.3209 92.7595 66.0407 94.0061C71.0911 97.7084 79.0952 94.4345 82.554 92.1091C90.7322 85.8446 96.1102 76.6099 97.5216 66.4076C98.5011 57.7028 95.6851 52.4095 92.2569 49.5793C93.3123 51.3493 94.1645 53.2328 94.7974 55.1938C96.2265 58.6837 96.6865 62.4945 96.1289 66.224C94.7809 76.0155 89.6428 84.8871 81.8194 90.9311C78.2994 93.3024 71.1064 95.9337 66.9436 92.8587C65.4253 91.7733 64.2171 90.3102 63.4386 88.6143C62.6601 86.9183 62.3384 85.0485 62.5054 83.1901V83.0524C62.6748 81.1065 63.2564 79.2189 64.2116 77.515C65.1668 75.8111 66.4737 74.3298 68.0456 73.1696C75.4987 67.3102 75.4681 62.7054 75.4528 60.7319V60.4412C75.4528 58.7431 76.264 53.205 79.7227 50.2371C81.2069 48.9658 83.11 48.2899 85.0639 48.3401C85.5758 48.3421 86.0871 48.3779 86.5943 48.4472L86.9463 48.5237C86.5025 47.9423 86.0587 47.4222 85.6608 46.9938C76.218 46.4431 74.0295 57.0449 74.0142 60.4412Z" fill="white"/>
<path d="M94.8127 55.1935C94.1797 53.2324 93.3275 51.349 92.2722 49.5789C90.7279 48.2603 88.8561 47.3829 86.8544 47.0394C86.4565 47.0394 86.0892 47.0394 85.7219 46.9629C86.1198 47.4218 86.5637 47.942 87.0075 48.4927C88.7484 48.9074 90.365 49.7318 91.7226 50.8974C93.0803 52.0629 94.1397 53.5358 94.8127 55.1935V55.1935Z" fill="white"/>
<path d="M28.4686 72.3431C27.2889 66.4971 27.5323 60.4533 29.1783 54.721C30.8243 48.9887 33.8247 43.736 37.9266 39.4054C37.5373 39.281 37.1704 39.0951 36.84 38.8547C36.1151 38.3171 35.6008 37.5433 35.3861 36.667C30.5581 41.6983 27.0971 47.8801 25.3319 54.6249C23.5667 61.3697 23.5559 68.4537 25.3006 75.2039C25.3617 75.451 25.473 75.6828 25.6278 75.8849C25.7825 76.0869 25.9773 76.255 26.1999 76.3784C26.4225 76.5019 26.6682 76.5782 26.9216 76.6024C27.175 76.6267 27.4307 76.5985 27.6727 76.5196L35.2024 74.0718C34.8475 72.8724 34.5714 71.651 34.376 70.4155L28.4686 72.3431Z" fill="white"/>
<path d="M36.8399 38.8395C37.1703 39.0799 37.5372 39.2659 37.9265 39.3903L38.4315 38.8548L35.7686 36.2388L35.386 36.6518C35.6007 37.5282 36.115 38.302 36.8399 38.8395V38.8395Z" fill="white"/>
<path d="M35.9064 69.9106L34.376 70.4155C34.5871 71.6469 34.8785 72.8631 35.2483 74.0565L37.1001 73.4599L35.9064 69.9106Z" fill="white"/>
<path d="M42.1507 96.8209C41.7839 97.3219 41.3007 97.7263 40.7427 97.9989C47.751 103.205 56.253 106.011 64.9846 106C70.3709 106 75.7043 104.939 80.6806 102.879C85.6568 100.819 90.1783 97.7986 93.9869 93.9914C97.7956 90.1842 100.817 85.6643 102.878 80.69C104.939 75.7157 106 70.3842 106 65C106 59.6158 104.939 54.2843 102.878 49.31C100.817 44.3356 97.7956 39.8158 93.9869 36.0086C90.1783 32.2014 85.6568 29.1814 80.6806 27.1209C75.7043 25.0605 70.3709 24 64.9846 24C61.2905 24.0239 57.6159 24.5384 54.0574 25.5299C54.5306 25.9839 54.8812 26.5502 55.0766 27.1761C55.2719 27.8021 55.3056 28.4672 55.1746 29.1097C60.8066 27.5566 66.7251 27.3501 72.4517 28.5068C78.1782 29.6635 83.5522 32.151 88.139 35.7682C92.7258 39.3853 96.3968 44.0307 98.8552 49.3286C101.314 54.6265 102.49 60.4284 102.29 66.2651C102.09 72.1018 100.519 77.8095 97.7037 82.9269C94.8884 88.0442 90.9079 92.4275 86.0842 95.7224C81.2605 99.0173 75.7288 101.131 69.9365 101.894C64.1441 102.656 58.2536 102.045 52.7412 100.11L52.2668 101.778L48.6856 100.753L49.2672 98.6873C47.0334 97.6348 44.9065 96.3693 42.9159 94.9086C42.8421 95.6043 42.5773 96.2662 42.1507 96.8209V96.8209Z" fill="white"/>
<path d="M54.0573 25.4688H53.9348L54.9449 29.0639H55.1745C55.3082 28.4191 55.2759 27.7509 55.0805 27.1221C54.885 26.4932 54.533 25.9243 54.0573 25.4688V25.4688Z" fill="white"/>
<path d="M40.1917 97.5704C40.36 97.7081 40.559 97.8305 40.7426 97.9529C41.3006 97.6803 41.7839 97.276 42.1506 96.7749V96.7749C42.5531 96.2283 42.8015 95.5838 42.8699 94.9085L42.4414 94.6025L40.1917 97.5704Z" fill="white"/>
<path d="M52.2206 101.778L52.7409 100.11C51.5625 99.6972 50.4147 99.2229 49.2669 98.6875L48.6853 100.753L52.2206 101.778Z" fill="white"/>
<path d="M51.3636 75.77C51.7423 75.4908 52.0026 75.0799 52.0932 74.6183C52.1839 74.1568 52.0983 73.678 51.8534 73.2764C50.7 71.4356 49.9482 69.3722 49.6471 67.2211C49.3461 65.07 49.5026 62.8796 50.1064 60.7931C50.7102 58.7066 51.7477 56.771 53.1511 55.1127C54.5545 53.4545 56.2922 52.111 58.2505 51.17C58.0704 51.0706 57.9012 50.9526 57.7455 50.8182C57.3243 50.4611 56.9838 50.0187 56.7463 49.5203C56.5089 49.0218 56.38 48.4787 56.3681 47.9268C54.1073 49.0555 52.0919 50.6198 50.4379 52.5298C48.7839 54.4398 47.5238 56.6578 46.7302 59.0562C45.9366 61.4546 45.6251 63.9861 45.8135 66.5053C46.002 69.0245 46.6867 71.4816 47.8283 73.7353L41.1863 78.5696C41.8088 79.6327 42.4989 80.6547 43.2524 81.6293L51.3636 75.77Z" fill="white"/>
<path d="M57.7456 50.8181C57.9012 50.9526 58.0705 51.0705 58.2506 51.17L59.1995 50.7416L57.8068 47.2842C57.317 47.4831 56.8426 47.6972 56.3682 47.9267C56.38 48.4787 56.5089 49.0218 56.7464 49.5202C56.9838 50.0187 57.3244 50.461 57.7456 50.8181V50.8181Z" fill="white"/>
<path d="M41.7525 82.7769L43.283 81.6754C42.5295 80.7008 41.8394 79.6788 41.2169 78.6157L39.5793 79.809L41.7525 82.7769Z" fill="white"/>
<path d="M86.7471 47.4831C91.5527 48.1715 98.8375 53.526 97.353 66.698C95.9637 76.832 90.6287 86.0081 82.5078 92.2312C79.0797 94.5413 71.1215 97.7999 66.117 94.1129C64.4097 92.8787 63.0542 91.2204 62.1845 89.302C61.3148 87.3835 60.9612 85.2714 61.1584 83.1745C61.3504 81.0358 61.9956 78.9625 63.0511 77.0924C64.1066 75.2222 65.5482 73.5981 67.2801 72.3279C74.5496 66.6368 74.0752 62.4909 74.0905 60.8081C74.0293 57.3506 76.3402 45.9991 86.7471 47.4831Z" fill="white"/>
</svg>
