<svg width="498" height="182" viewBox="0 0 498 182" fill="none" xmlns="http://www.w3.org/2000/svg">
<g clip-path="url(#clip0_290_193)">
<path d="M107.45 4.6299L107.228 5.23988L78.0364 85.3276L53.7057 24.8277L29.3953 85.3276L28.988 84.2196L0 4.6299H10.0201L29.4502 60.0858L53.7057 -0.00778329L77.9801 60.0858L97.4107 4.6299H107.45Z" fill="#253F7A"/>
<path d="M107.66 56.6494C107.66 67.7947 115.558 76.8514 127.057 76.8514C138.557 76.8514 146.456 67.7947 146.456 56.6494C146.456 45.6198 138.557 36.4489 127.057 36.4489C115.558 36.4489 107.66 45.6198 107.66 56.6494ZM98.3684 56.7656C98.3684 40.7452 111.03 27.8576 127.057 27.8576C143.087 27.8576 155.748 40.7452 155.748 56.7656C155.748 72.7875 142.971 85.4429 127.057 85.4429C111.146 85.4429 98.3684 72.7875 98.3684 56.7656Z" fill="#253F7A"/>
<path d="M169.579 56.6494C169.579 67.7947 177.477 76.8514 188.976 76.8514C200.476 76.8514 208.374 67.7947 208.374 56.6494C208.374 45.6198 200.476 36.4489 188.976 36.4489C177.477 36.4489 169.579 45.6198 169.579 56.6494ZM160.287 56.7656C160.287 40.7452 172.948 27.8576 188.976 27.8576C205.007 27.8576 217.665 40.7452 217.665 56.7656C217.665 72.7875 204.89 85.4429 188.976 85.4429C173.063 85.4429 160.287 72.7875 160.287 56.7656Z" fill="#253F7A"/>
<path d="M232.507 56.0704C232.507 66.7508 238.78 76.8514 250.396 76.8514C262.357 76.8514 268.632 67.2142 268.632 56.1847C268.632 45.2719 261.777 36.4489 250.279 36.4489C239.475 36.4489 232.507 45.8521 232.507 56.0704ZM268.166 76.3867H267.933C263.404 82.3072 256.55 85.4429 249.116 85.4429C233.088 85.4429 222.982 71.8586 222.982 56.7656C222.982 41.2092 232.855 27.8576 249.233 27.8576C256.55 27.8576 263.52 31.3396 267.933 37.1461H268.166V4.63019H277.458V83.9335H268.166V76.3867Z" fill="#253F7A"/>
<path d="M111.784 151.714C111.784 162.395 118.057 172.495 129.672 172.495C141.635 172.495 147.908 162.858 147.908 151.829C147.908 140.915 141.054 132.093 129.556 132.093C118.752 132.093 111.784 141.496 111.784 151.714ZM156.735 179.577H147.444V172.031H147.211C142.448 178.067 136.06 181.087 128.394 181.087C112.365 181.087 102.26 167.502 102.26 152.409C102.26 136.853 112.132 123.501 128.51 123.501C135.944 123.501 142.681 126.984 147.211 132.789H147.444V125.011H156.735V179.577Z" fill="#253F7A"/>
<path d="M209.054 141.264H208.821C204.523 135.807 199.18 132.093 191.862 132.093C180.595 132.093 172.582 141.38 172.582 152.293C172.582 163.09 180.016 172.495 191.396 172.495C199.18 172.495 204.639 169.012 209.17 163.09H209.401V175.513C204.058 179.112 198.599 181.087 192.093 181.087C175.602 181.087 163.056 168.78 163.056 152.293C163.056 136.04 176.182 123.501 192.21 123.501C198.135 123.501 204.175 125.475 209.054 128.959V141.264Z" fill="#253F7A"/>
<path d="M227.203 145.211L247.066 125.011H259.496L236.148 148.229L263.907 179.577H251.596L229.644 154.732L227.203 157.169V179.577H217.911V100.274H227.203V145.211Z" fill="#253F7A"/>
<path d="M302.1 146.372C300.822 138.478 294.204 132.093 286.071 132.093C278.057 132.093 270.623 138.478 269.462 146.372H302.1ZM268.996 154.268C269.113 164.368 276.313 172.495 286.885 172.495C294.783 172.495 299.894 167.734 303.494 161.233L311.394 165.762C306.165 175.513 297.339 181.087 286.188 181.087C269.926 181.087 259.473 168.663 259.473 152.99C259.473 136.853 268.88 123.501 285.957 123.501C303.494 123.501 312.788 138.013 311.858 154.268H268.996Z" fill="#253F7A"/>
<path d="M328.482 131.628H328.715C332.547 126.403 337.543 123.501 344.279 123.501C359.38 123.501 362.863 134.414 362.863 147.186V179.577H353.571V148.81C353.571 139.987 352.874 132.093 342.072 132.093C329.295 132.093 328.482 143.935 328.482 153.686V179.577H319.19V125.011H328.482V131.628Z" fill="#253F7A"/>
<path d="M423.005 170.985V179.577H366.555L405.93 133.601H373.873V125.011H424.63L385.372 170.985H423.005Z" fill="#253F7A"/>
<path d="M438.853 179.577H429.559V125.011H438.853V179.577ZM440.827 106.891C440.827 110.607 437.806 113.508 434.207 113.508C430.605 113.508 427.586 110.607 427.586 106.891C427.586 103.292 430.605 100.274 434.207 100.274C437.806 100.274 440.827 103.292 440.827 106.891Z" fill="#253F7A"/>
<path d="M488.185 146.372C486.909 138.478 480.289 132.093 472.158 132.093C464.144 132.093 456.71 138.478 455.547 146.372H488.185ZM455.083 154.268C455.198 164.368 462.4 172.495 472.971 172.495C480.868 172.495 485.979 167.734 489.581 161.233L497.479 165.762C492.25 175.513 483.424 181.087 472.275 181.087C456.011 181.087 445.558 168.663 445.558 152.99C445.558 136.853 454.966 123.501 472.042 123.501C489.581 123.501 498.873 138.013 497.943 154.268H455.083Z" fill="#253F7A"/>
<path d="M98.6976 179.586H89.1787L79.3435 128.145L53.7252 182L28.1061 128.145L18.2716 179.586H8.75195L8.80468 179.271L24.5365 97.6223L53.7252 160.31L82.9138 97.6223L98.6456 179.271L98.6976 179.586Z" fill="#253F7A"/>
</g>
<defs>
<clipPath id="clip0_290_193">
<rect width="498" height="182" fill="white"/>
</clipPath>
</defs>
</svg>
